<svg id="Layer_1" data-name="Layer 1" xmlns="http://www.w3.org/2000/svg" viewBox="0 0 85 85"><defs><style>.cls-1,.cls-2,.cls-3,.cls-4,.cls-5,.cls-6,.cls-7,.cls-9{stroke:#000;}.cls-1,.cls-2,.cls-4,.cls-7{stroke-miterlimit:10;}.cls-2,.cls-4{fill:#fff;}.cls-3,.cls-4,.cls-5,.cls-6,.cls-7,.cls-9{stroke-linecap:round;}.cls-3,.cls-5,.cls-6,.cls-9{stroke-linejoin:round;}.cls-5,.cls-6,.cls-9{fill:none;}.cls-6{stroke-width:1.5px;}.cls-8{opacity:0.9;}.cls-9{stroke-width:0.5px;}</style></defs><title>Zohar</title><path class="cls-1" d="M20.51,66.5H63.35A12.65,12.65,0,0,1,76,79.15V83.5a0,0,0,0,1,0,0H9a0,0,0,0,1,0,0V78A11.51,11.51,0,0,1,20.51,66.5Z"/><path class="cls-2" d="M49,75.12l-1.34.78a9.06,9.06,0,0,1-9,.08l-1.59-.89A9.06,9.06,0,0,1,32.5,67.2V47.5h21V67.31A9.06,9.06,0,0,1,49,75.12Z"/><path class="cls-3" d="M42.51,66.5,39.4,64.8a4,4,0,0,1-1.87-3.2l0-.3h2l3-1.3,3,1.3h2a4.12,4.12,0,0,1-1.86,3.44Z"/><rect class="cls-4" x="24.69" y="38.8" width="35.63" height="10.8" rx="2.88"/><path class="cls-1" d="M45.9,17H38.1A12.8,12.8,0,0,0,25.3,29.79l1,12.14H58.7V29.79A12.8,12.8,0,0,0,45.9,17Z"/><path class="cls-4" d="M51.69,59.05l-5.12,3.64a7,7,0,0,1-8.14,0l-5.12-3.64A15,15,0,0,1,27,46.84V33.54l2-3V29.08a13.49,13.49,0,0,1,13.5-13.5h0A13.49,13.49,0,0,1,56,29.08v.43l2,3v14.3A15,15,0,0,1,51.69,59.05Z"/><path class="cls-5" d="M40.41,48.41a3.43,3.43,0,0,0,2.16,1,3,3,0,0,0,2-1"/><path class="cls-5" d="M47.36,53.51a13.63,13.63,0,0,1-9.72,0"/><path d="M46.62,39.81c0-1,3.68-1,3.68,0a1.84,1.84,0,1,1-3.68,0Z"/><path d="M34.7,39.81c0-1,3.68-1,3.68,0a1.84,1.84,0,0,1-3.68,0Z"/><path d="M30.69,39a3.31,3.31,0,0,1,1.41-2.51,5.59,5.59,0,0,1,2.75-1.08,8.84,8.84,0,0,1,1.45-.06,9.26,9.26,0,0,1,1.4.2,8.3,8.3,0,0,1,2.61,1,11.17,11.17,0,0,1-1.39.09c-.45,0-.89,0-1.33,0s-.86.05-1.29.05-.84,0-1.25.13a8.47,8.47,0,0,0-2.34.59A5,5,0,0,0,30.69,39Z"/><path class="cls-6" d="M35,36.14a14.87,14.87,0,0,1,5.31.45"/><path d="M54.31,39a5,5,0,0,0-2-1.51A8.47,8.47,0,0,0,50,36.9c-.41-.08-.83-.07-1.25-.13s-.85,0-1.29-.05-.88,0-1.33,0a11.17,11.17,0,0,1-1.39-.09,8.3,8.3,0,0,1,2.61-1,9.26,9.26,0,0,1,1.4-.2,8.84,8.84,0,0,1,1.45.06,5.59,5.59,0,0,1,2.75,1.08A3.31,3.31,0,0,1,54.31,39Z"/><path class="cls-6" d="M50,36.14a14.87,14.87,0,0,0-5.31.45"/><path class="cls-7" d="M51.69,59.05l-5.12,3.64a7,7,0,0,1-8.14,0l-5.12-3.64a15.22,15.22,0,0,1-2.05-1.78,14.18,14.18,0,0,0,3.23,3.78l6.8,5.54a1.9,1.9,0,0,0,2.42,0l6.8-5.54a14.18,14.18,0,0,0,3.23-3.78A15.22,15.22,0,0,1,51.69,59.05Z"/><g class="cls-8"><line class="cls-9" x1="32.2" y1="56.28" x2="32.2" y2="57.67"/><line class="cls-9" x1="34.62" y1="58.83" x2="34.62" y2="59.88"/><line class="cls-9" x1="33.41" y1="57.62" x2="33.41" y2="58.67"/><line class="cls-9" x1="35.62" y1="52.59" x2="35.62" y2="53.34"/><line class="cls-9" x1="36.87" y1="51.38" x2="36.87" y2="52.13"/><line class="cls-9" x1="38.12" y1="50.77" x2="38.12" y2="52.13"/><line class="cls-9" x1="39.37" y1="50.77" x2="39.37" y2="52.13"/><line class="cls-9" x1="41.87" y1="50.77" x2="41.87" y2="52.13"/><line class="cls-9" x1="37.05" y1="60.2" x2="37.05" y2="61.71"/><line class="cls-9" x1="39.47" y1="60.81" x2="39.47" y2="63.68"/><line class="cls-9" x1="38.26" y1="60.81" x2="38.26" y2="62.6"/><line class="cls-9" x1="41.89" y1="60.94" x2="41.89" y2="63.44"/><line class="cls-9" x1="43.11" y1="60.94" x2="43.11" y2="63.44"/><line class="cls-9" x1="40.68" y1="61.55" x2="40.68" y2="63.92"/><line class="cls-9" x1="44.32" y1="61.55" x2="44.32" y2="63.92"/><line class="cls-9" x1="42.5" y1="56.61" x2="42.5" y2="59.03"/><line class="cls-9" x1="40.08" y1="56.61" x2="40.08" y2="57.21"/><line class="cls-9" x1="41.29" y1="56.61" x2="41.29" y2="58.12"/><line class="cls-9" x1="43.71" y1="56.61" x2="43.71" y2="58.12"/><line class="cls-9" x1="44.92" y1="56.61" x2="44.92" y2="57.21"/><line class="cls-9" x1="35.83" y1="59.12" x2="35.83" y2="60.49"/><line class="cls-9" x1="40.62" y1="50.77" x2="40.62" y2="52.13"/><line class="cls-9" x1="49.38" y1="52.59" x2="49.38" y2="53.34"/><line class="cls-9" x1="48.13" y1="51.38" x2="48.13" y2="52.13"/><line class="cls-9" x1="46.88" y1="50.77" x2="46.88" y2="52.13"/><line class="cls-9" x1="45.63" y1="50.77" x2="45.63" y2="52.13"/><line class="cls-9" x1="43.13" y1="50.77" x2="43.13" y2="52.13"/><line class="cls-9" x1="44.38" y1="50.77" x2="44.38" y2="52.13"/><line class="cls-9" x1="52.8" y1="56.28" x2="52.8" y2="57.67"/><line class="cls-9" x1="50.38" y1="58.83" x2="50.38" y2="59.88"/><line class="cls-9" x1="51.59" y1="57.62" x2="51.59" y2="58.67"/><line class="cls-9" x1="47.95" y1="60.2" x2="47.95" y2="61.71"/><line class="cls-9" x1="45.53" y1="60.81" x2="45.53" y2="62.68"/><line class="cls-9" x1="46.74" y1="60.81" x2="46.74" y2="62.6"/><line class="cls-9" x1="49.17" y1="59.12" x2="49.17" y2="60.49"/></g><path class="cls-1" d="M62.5,38.5H59.64a6,6,0,0,1-6-5.86h0A11.32,11.32,0,0,0,42.36,21.5H36A4.49,4.49,0,0,1,31.5,17h0A4.49,4.49,0,0,1,36,12.5h9.39A15.12,15.12,0,0,1,60.5,27.61v4.61a10.88,10.88,0,0,0,2,6.28Z"/></svg>